<mxfile host="app.diagrams.net" modified="2024-04-26T11:40:03.380Z" agent="Mozilla/5.0 (Windows NT 10.0; Win64; x64) AppleWebKit/537.36 (KHTML, like Gecko) Chrome/124.0.0.0 Safari/537.36" etag="Ovo3v-DLoqZieWdKFtwH" version="24.3.0" type="device">
  <diagram id="C5RBs43oDa-KdzZeNtuy" name="Page-1">
    <mxGraphModel dx="2784" dy="888" grid="1" gridSize="10" guides="1" tooltips="1" connect="1" arrows="1" fold="1" page="1" pageScale="1" pageWidth="1169" pageHeight="1654" math="0" shadow="0">
      <root>
        <mxCell id="WIyWlLk6GJQsqaUBKTNV-0" />
        <mxCell id="WIyWlLk6GJQsqaUBKTNV-1" parent="WIyWlLk6GJQsqaUBKTNV-0" />
        <mxCell id="wYdP03RayNkEMsFccGId-65" value="&lt;b&gt;Start&lt;/b&gt;" style="ellipse;whiteSpace=wrap;html=1;" parent="WIyWlLk6GJQsqaUBKTNV-1" vertex="1">
          <mxGeometry x="480" y="30" width="120" height="40" as="geometry" />
        </mxCell>
        <mxCell id="wYdP03RayNkEMsFccGId-66" value="" style="endArrow=classic;html=1;rounded=0;exitX=0.5;exitY=1;exitDx=0;exitDy=0;entryX=0.5;entryY=0;entryDx=0;entryDy=0;" parent="WIyWlLk6GJQsqaUBKTNV-1" source="wYdP03RayNkEMsFccGId-65" target="wYdP03RayNkEMsFccGId-67" edge="1">
          <mxGeometry width="50" height="50" relative="1" as="geometry">
            <mxPoint x="640" y="290" as="sourcePoint" />
            <mxPoint x="450" y="180" as="targetPoint" />
          </mxGeometry>
        </mxCell>
        <mxCell id="wYdP03RayNkEMsFccGId-67" value="&lt;div style=&quot;text-align: justify;&quot;&gt;&lt;span style=&quot;background-color: initial;&quot;&gt;&lt;b&gt;Display&lt;/b&gt;&lt;/span&gt;&lt;/div&gt;&lt;div style=&quot;text-align: justify;&quot;&gt;&lt;span style=&quot;background-color: initial;&quot;&gt;&lt;b&gt;1&amp;nbsp;&lt;/b&gt;&lt;/span&gt;&lt;b style=&quot;background-color: initial;&quot;&gt;Rent a Land&lt;/b&gt;&lt;/div&gt;&lt;div style=&quot;text-align: justify;&quot;&gt;&lt;span style=&quot;background-color: initial;&quot;&gt;&lt;b&gt;2&amp;nbsp;&lt;/b&gt;&lt;/span&gt;&lt;b style=&quot;background-color: initial;&quot;&gt;Return a Land&lt;/b&gt;&lt;/div&gt;&lt;div style=&quot;text-align: justify;&quot;&gt;&lt;span style=&quot;background-color: initial;&quot;&gt;&lt;b&gt;3 Show lands&lt;/b&gt;&lt;/span&gt;&lt;/div&gt;&lt;div style=&quot;text-align: justify;&quot;&gt;&lt;span style=&quot;background-color: initial;&quot;&gt;&lt;b&gt;4 Exit&lt;/b&gt;&lt;/span&gt;&lt;/div&gt;" style="shape=parallelogram;perimeter=parallelogramPerimeter;whiteSpace=wrap;html=1;fixedSize=1;align=center;" parent="WIyWlLk6GJQsqaUBKTNV-1" vertex="1">
          <mxGeometry x="425" y="100" width="230" height="80" as="geometry" />
        </mxCell>
        <mxCell id="wYdP03RayNkEMsFccGId-68" value="" style="endArrow=classic;html=1;rounded=0;exitX=0.5;exitY=1;exitDx=0;exitDy=0;entryX=0.5;entryY=0;entryDx=0;entryDy=0;" parent="WIyWlLk6GJQsqaUBKTNV-1" source="wYdP03RayNkEMsFccGId-79" target="wYdP03RayNkEMsFccGId-69" edge="1">
          <mxGeometry width="50" height="50" relative="1" as="geometry">
            <mxPoint x="440" y="390" as="sourcePoint" />
            <mxPoint x="450" y="300" as="targetPoint" />
          </mxGeometry>
        </mxCell>
        <mxCell id="CCjqPQjAsDBOnnWErIDQ-150" style="edgeStyle=orthogonalEdgeStyle;rounded=0;orthogonalLoop=1;jettySize=auto;html=1;exitX=0.5;exitY=1;exitDx=0;exitDy=0;entryX=0.5;entryY=0;entryDx=0;entryDy=0;" parent="WIyWlLk6GJQsqaUBKTNV-1" source="wYdP03RayNkEMsFccGId-69" target="wYdP03RayNkEMsFccGId-71" edge="1">
          <mxGeometry relative="1" as="geometry" />
        </mxCell>
        <mxCell id="wYdP03RayNkEMsFccGId-69" value="&lt;b&gt;x&lt;/b&gt;&lt;div&gt;&lt;b&gt;==&lt;/b&gt;&lt;/div&gt;&lt;div&gt;&lt;b&gt;1&lt;/b&gt;&lt;/div&gt;" style="rhombus;whiteSpace=wrap;html=1;" parent="WIyWlLk6GJQsqaUBKTNV-1" vertex="1">
          <mxGeometry x="495" y="285" width="90" height="80" as="geometry" />
        </mxCell>
        <mxCell id="LpYJtgIqMoZLmwXfNO1s-117" style="edgeStyle=orthogonalEdgeStyle;rounded=0;orthogonalLoop=1;jettySize=auto;html=1;entryX=0;entryY=0.25;entryDx=0;entryDy=0;" edge="1" parent="WIyWlLk6GJQsqaUBKTNV-1" source="wYdP03RayNkEMsFccGId-71" target="LpYJtgIqMoZLmwXfNO1s-103">
          <mxGeometry relative="1" as="geometry" />
        </mxCell>
        <mxCell id="wYdP03RayNkEMsFccGId-71" value="&lt;b&gt;x&lt;/b&gt;&lt;div&gt;&lt;b&gt;==&lt;br&gt;2&lt;/b&gt;&lt;/div&gt;" style="rhombus;whiteSpace=wrap;html=1;" parent="WIyWlLk6GJQsqaUBKTNV-1" vertex="1">
          <mxGeometry x="500" y="400" width="80" height="80" as="geometry" />
        </mxCell>
        <mxCell id="wYdP03RayNkEMsFccGId-72" value="" style="endArrow=classic;html=1;rounded=0;exitX=0.5;exitY=1;exitDx=0;exitDy=0;" parent="WIyWlLk6GJQsqaUBKTNV-1" source="wYdP03RayNkEMsFccGId-71" target="LpYJtgIqMoZLmwXfNO1s-195" edge="1">
          <mxGeometry width="50" height="50" relative="1" as="geometry">
            <mxPoint x="440" y="590" as="sourcePoint" />
            <mxPoint x="540" y="789.9999999999998" as="targetPoint" />
          </mxGeometry>
        </mxCell>
        <mxCell id="wYdP03RayNkEMsFccGId-76" value="" style="endArrow=classic;html=1;rounded=0;exitX=0.5;exitY=1;exitDx=0;exitDy=0;" parent="WIyWlLk6GJQsqaUBKTNV-1" source="LpYJtgIqMoZLmwXfNO1s-195" target="wYdP03RayNkEMsFccGId-77" edge="1">
          <mxGeometry width="50" height="50" relative="1" as="geometry">
            <mxPoint x="440" y="790" as="sourcePoint" />
            <mxPoint x="450" y="1060" as="targetPoint" />
          </mxGeometry>
        </mxCell>
        <mxCell id="wYdP03RayNkEMsFccGId-77" value="&lt;b&gt;End&lt;/b&gt;" style="ellipse;whiteSpace=wrap;html=1;" parent="WIyWlLk6GJQsqaUBKTNV-1" vertex="1">
          <mxGeometry x="480" y="1560" width="120" height="50" as="geometry" />
        </mxCell>
        <mxCell id="wYdP03RayNkEMsFccGId-78" value="" style="endArrow=classic;html=1;rounded=0;exitX=0.5;exitY=1;exitDx=0;exitDy=0;entryX=0.5;entryY=0;entryDx=0;entryDy=0;" parent="WIyWlLk6GJQsqaUBKTNV-1" source="wYdP03RayNkEMsFccGId-67" target="wYdP03RayNkEMsFccGId-79" edge="1">
          <mxGeometry width="50" height="50" relative="1" as="geometry">
            <mxPoint x="540" y="160" as="sourcePoint" />
            <mxPoint x="540" y="300" as="targetPoint" />
          </mxGeometry>
        </mxCell>
        <mxCell id="wYdP03RayNkEMsFccGId-79" value="&lt;b&gt;Input User Choice x&lt;/b&gt;" style="shape=parallelogram;perimeter=parallelogramPerimeter;whiteSpace=wrap;html=1;fixedSize=1;" parent="WIyWlLk6GJQsqaUBKTNV-1" vertex="1">
          <mxGeometry x="430" y="200" width="220" height="60" as="geometry" />
        </mxCell>
        <mxCell id="wYdP03RayNkEMsFccGId-80" value="" style="endArrow=classic;html=1;rounded=0;exitX=0;exitY=0.5;exitDx=0;exitDy=0;entryX=1;entryY=0.5;entryDx=0;entryDy=0;" parent="WIyWlLk6GJQsqaUBKTNV-1" source="wYdP03RayNkEMsFccGId-69" edge="1">
          <mxGeometry width="50" height="50" relative="1" as="geometry">
            <mxPoint x="520" y="330" as="sourcePoint" />
            <mxPoint x="430" y="325" as="targetPoint" />
          </mxGeometry>
        </mxCell>
        <mxCell id="wYdP03RayNkEMsFccGId-225" value="&lt;b&gt;Yes&lt;/b&gt;" style="text;html=1;align=center;verticalAlign=middle;resizable=0;points=[];autosize=1;strokeColor=none;fillColor=none;" parent="WIyWlLk6GJQsqaUBKTNV-1" vertex="1">
          <mxGeometry x="455" y="320" width="40" height="30" as="geometry" />
        </mxCell>
        <mxCell id="7vTTvqhq77VGA1ktP-LC-46" style="edgeStyle=orthogonalEdgeStyle;rounded=0;orthogonalLoop=1;jettySize=auto;html=1;exitX=1;exitY=0.5;exitDx=0;exitDy=0;entryX=0;entryY=0.5;entryDx=0;entryDy=0;" parent="WIyWlLk6GJQsqaUBKTNV-1" source="7vTTvqhq77VGA1ktP-LC-17" target="wYdP03RayNkEMsFccGId-67" edge="1">
          <mxGeometry relative="1" as="geometry" />
        </mxCell>
        <mxCell id="7vTTvqhq77VGA1ktP-LC-17" value="&lt;b&gt;M&lt;/b&gt;" style="ellipse;whiteSpace=wrap;html=1;" parent="WIyWlLk6GJQsqaUBKTNV-1" vertex="1">
          <mxGeometry x="330" y="120" width="40" height="40" as="geometry" />
        </mxCell>
        <mxCell id="7vTTvqhq77VGA1ktP-LC-63" value="&lt;b&gt;No&lt;/b&gt;" style="text;html=1;align=center;verticalAlign=middle;resizable=0;points=[];autosize=1;strokeColor=none;fillColor=none;" parent="WIyWlLk6GJQsqaUBKTNV-1" vertex="1">
          <mxGeometry x="500" y="365" width="40" height="30" as="geometry" />
        </mxCell>
        <mxCell id="LpYJtgIqMoZLmwXfNO1s-3" value="" style="edgeStyle=orthogonalEdgeStyle;rounded=0;orthogonalLoop=1;jettySize=auto;html=1;" edge="1" parent="WIyWlLk6GJQsqaUBKTNV-1" source="LpYJtgIqMoZLmwXfNO1s-1" target="LpYJtgIqMoZLmwXfNO1s-2">
          <mxGeometry relative="1" as="geometry" />
        </mxCell>
        <mxCell id="LpYJtgIqMoZLmwXfNO1s-1" value="&lt;b&gt;Conform y&lt;/b&gt;" style="shape=parallelogram;perimeter=parallelogramPerimeter;whiteSpace=wrap;html=1;fixedSize=1;" vertex="1" parent="WIyWlLk6GJQsqaUBKTNV-1">
          <mxGeometry x="330" y="307.5" width="103.75" height="35" as="geometry" />
        </mxCell>
        <mxCell id="LpYJtgIqMoZLmwXfNO1s-5" value="" style="edgeStyle=orthogonalEdgeStyle;rounded=0;orthogonalLoop=1;jettySize=auto;html=1;" edge="1" parent="WIyWlLk6GJQsqaUBKTNV-1" source="LpYJtgIqMoZLmwXfNO1s-2" target="LpYJtgIqMoZLmwXfNO1s-4">
          <mxGeometry relative="1" as="geometry" />
        </mxCell>
        <mxCell id="LpYJtgIqMoZLmwXfNO1s-2" value="&lt;b&gt;y&lt;/b&gt;&lt;br&gt;&lt;div&gt;&lt;b&gt;==&lt;/b&gt;&lt;/div&gt;&lt;div&gt;&lt;b&gt;yes&lt;/b&gt;&lt;/div&gt;" style="rhombus;whiteSpace=wrap;html=1;" vertex="1" parent="WIyWlLk6GJQsqaUBKTNV-1">
          <mxGeometry x="349.69" y="370" width="64.37" height="66.25" as="geometry" />
        </mxCell>
        <mxCell id="LpYJtgIqMoZLmwXfNO1s-4" value="&lt;b&gt;y&lt;/b&gt;&lt;br&gt;&lt;div&gt;&lt;b&gt;==&lt;/b&gt;&lt;/div&gt;&lt;div&gt;&lt;b&gt;No&lt;/b&gt;&lt;/div&gt;" style="rhombus;whiteSpace=wrap;html=1;" vertex="1" parent="WIyWlLk6GJQsqaUBKTNV-1">
          <mxGeometry x="349.69" y="462.5" width="64.37" height="66.25" as="geometry" />
        </mxCell>
        <mxCell id="LpYJtgIqMoZLmwXfNO1s-8" value="" style="endArrow=classic;html=1;rounded=0;" edge="1" parent="WIyWlLk6GJQsqaUBKTNV-1">
          <mxGeometry width="50" height="50" relative="1" as="geometry">
            <mxPoint x="414.06" y="495.19" as="sourcePoint" />
            <mxPoint x="450" y="495.19" as="targetPoint" />
          </mxGeometry>
        </mxCell>
        <mxCell id="LpYJtgIqMoZLmwXfNO1s-9" value="&lt;b&gt;M&lt;/b&gt;" style="ellipse;whiteSpace=wrap;html=1;rounded=0;" vertex="1" parent="WIyWlLk6GJQsqaUBKTNV-1">
          <mxGeometry x="455" y="474.5" width="35" height="37.5" as="geometry" />
        </mxCell>
        <mxCell id="LpYJtgIqMoZLmwXfNO1s-11" value="&lt;b&gt;No&lt;/b&gt;" style="text;html=1;align=center;verticalAlign=middle;resizable=0;points=[];autosize=1;strokeColor=none;fillColor=none;" vertex="1" parent="WIyWlLk6GJQsqaUBKTNV-1">
          <mxGeometry x="410" y="462.5" width="40" height="30" as="geometry" />
        </mxCell>
        <mxCell id="LpYJtgIqMoZLmwXfNO1s-12" value="&lt;b&gt;Yes&lt;/b&gt;" style="text;html=1;align=center;verticalAlign=middle;resizable=0;points=[];autosize=1;strokeColor=none;fillColor=none;" vertex="1" parent="WIyWlLk6GJQsqaUBKTNV-1">
          <mxGeometry x="318.13" y="380" width="40" height="30" as="geometry" />
        </mxCell>
        <mxCell id="LpYJtgIqMoZLmwXfNO1s-25" value="" style="edgeStyle=orthogonalEdgeStyle;rounded=0;orthogonalLoop=1;jettySize=auto;html=1;" edge="1" parent="WIyWlLk6GJQsqaUBKTNV-1" source="LpYJtgIqMoZLmwXfNO1s-13" target="LpYJtgIqMoZLmwXfNO1s-21">
          <mxGeometry relative="1" as="geometry" />
        </mxCell>
        <mxCell id="LpYJtgIqMoZLmwXfNO1s-13" value="&lt;b&gt;Choice multiple z&lt;/b&gt;" style="shape=parallelogram;perimeter=parallelogramPerimeter;whiteSpace=wrap;html=1;fixedSize=1;" vertex="1" parent="WIyWlLk6GJQsqaUBKTNV-1">
          <mxGeometry x="150" y="385.94" width="143.75" height="34.37" as="geometry" />
        </mxCell>
        <mxCell id="LpYJtgIqMoZLmwXfNO1s-14" value="" style="edgeStyle=orthogonalEdgeStyle;rounded=0;orthogonalLoop=1;jettySize=auto;html=1;" edge="1" parent="WIyWlLk6GJQsqaUBKTNV-1" source="LpYJtgIqMoZLmwXfNO1s-15" target="LpYJtgIqMoZLmwXfNO1s-16">
          <mxGeometry relative="1" as="geometry" />
        </mxCell>
        <mxCell id="LpYJtgIqMoZLmwXfNO1s-34" style="edgeStyle=orthogonalEdgeStyle;rounded=0;orthogonalLoop=1;jettySize=auto;html=1;entryX=1;entryY=0.75;entryDx=0;entryDy=0;" edge="1" parent="WIyWlLk6GJQsqaUBKTNV-1" source="LpYJtgIqMoZLmwXfNO1s-15" target="LpYJtgIqMoZLmwXfNO1s-33">
          <mxGeometry relative="1" as="geometry" />
        </mxCell>
        <mxCell id="LpYJtgIqMoZLmwXfNO1s-15" value="&lt;b&gt;y&lt;/b&gt;&lt;br&gt;&lt;div&gt;&lt;b&gt;==&lt;/b&gt;&lt;/div&gt;&lt;div&gt;&lt;b&gt;yes&lt;/b&gt;&lt;/div&gt;" style="rhombus;whiteSpace=wrap;html=1;" vertex="1" parent="WIyWlLk6GJQsqaUBKTNV-1">
          <mxGeometry x="349.69" y="370" width="64.37" height="66.25" as="geometry" />
        </mxCell>
        <mxCell id="LpYJtgIqMoZLmwXfNO1s-16" value="&lt;b&gt;y&lt;/b&gt;&lt;br&gt;&lt;div&gt;&lt;b&gt;==&lt;/b&gt;&lt;/div&gt;&lt;div&gt;&lt;b&gt;No&lt;/b&gt;&lt;/div&gt;" style="rhombus;whiteSpace=wrap;html=1;" vertex="1" parent="WIyWlLk6GJQsqaUBKTNV-1">
          <mxGeometry x="349.69" y="462.5" width="64.37" height="66.25" as="geometry" />
        </mxCell>
        <mxCell id="LpYJtgIqMoZLmwXfNO1s-17" value="" style="endArrow=classic;html=1;rounded=0;" edge="1" parent="WIyWlLk6GJQsqaUBKTNV-1">
          <mxGeometry width="50" height="50" relative="1" as="geometry">
            <mxPoint x="414.06" y="495.19" as="sourcePoint" />
            <mxPoint x="450" y="495.19" as="targetPoint" />
          </mxGeometry>
        </mxCell>
        <mxCell id="LpYJtgIqMoZLmwXfNO1s-18" value="&lt;b&gt;No&lt;/b&gt;" style="text;html=1;align=center;verticalAlign=middle;resizable=0;points=[];autosize=1;strokeColor=none;fillColor=none;" vertex="1" parent="WIyWlLk6GJQsqaUBKTNV-1">
          <mxGeometry x="410" y="462.5" width="40" height="30" as="geometry" />
        </mxCell>
        <mxCell id="LpYJtgIqMoZLmwXfNO1s-19" value="" style="edgeStyle=orthogonalEdgeStyle;rounded=0;orthogonalLoop=1;jettySize=auto;html=1;" edge="1" parent="WIyWlLk6GJQsqaUBKTNV-1" source="LpYJtgIqMoZLmwXfNO1s-20" target="LpYJtgIqMoZLmwXfNO1s-21">
          <mxGeometry relative="1" as="geometry" />
        </mxCell>
        <mxCell id="LpYJtgIqMoZLmwXfNO1s-32" value="" style="edgeStyle=orthogonalEdgeStyle;rounded=0;orthogonalLoop=1;jettySize=auto;html=1;" edge="1" parent="WIyWlLk6GJQsqaUBKTNV-1" source="LpYJtgIqMoZLmwXfNO1s-20" target="LpYJtgIqMoZLmwXfNO1s-30">
          <mxGeometry relative="1" as="geometry" />
        </mxCell>
        <mxCell id="LpYJtgIqMoZLmwXfNO1s-20" value="&lt;b&gt;z&lt;/b&gt;&lt;br&gt;&lt;div&gt;&lt;b&gt;==&lt;/b&gt;&lt;/div&gt;&lt;div&gt;&lt;b&gt;yes&lt;/b&gt;&lt;/div&gt;" style="rhombus;whiteSpace=wrap;html=1;" vertex="1" parent="WIyWlLk6GJQsqaUBKTNV-1">
          <mxGeometry x="190" y="445.75" width="64.37" height="66.25" as="geometry" />
        </mxCell>
        <mxCell id="LpYJtgIqMoZLmwXfNO1s-39" value="" style="edgeStyle=orthogonalEdgeStyle;rounded=0;orthogonalLoop=1;jettySize=auto;html=1;" edge="1" parent="WIyWlLk6GJQsqaUBKTNV-1" source="LpYJtgIqMoZLmwXfNO1s-21" target="LpYJtgIqMoZLmwXfNO1s-29">
          <mxGeometry relative="1" as="geometry" />
        </mxCell>
        <mxCell id="LpYJtgIqMoZLmwXfNO1s-21" value="&lt;b&gt;z&lt;/b&gt;&lt;br&gt;&lt;div&gt;&lt;b&gt;==&lt;/b&gt;&lt;/div&gt;&lt;div&gt;&lt;b&gt;No&lt;/b&gt;&lt;/div&gt;" style="rhombus;whiteSpace=wrap;html=1;" vertex="1" parent="WIyWlLk6GJQsqaUBKTNV-1">
          <mxGeometry x="190" y="600" width="64.37" height="66.25" as="geometry" />
        </mxCell>
        <mxCell id="LpYJtgIqMoZLmwXfNO1s-23" value="&lt;b&gt;No&lt;/b&gt;" style="text;html=1;align=center;verticalAlign=middle;resizable=0;points=[];autosize=1;strokeColor=none;fillColor=none;" vertex="1" parent="WIyWlLk6GJQsqaUBKTNV-1">
          <mxGeometry x="247.5" y="603" width="40" height="30" as="geometry" />
        </mxCell>
        <mxCell id="LpYJtgIqMoZLmwXfNO1s-26" value="&lt;b&gt;Yes&lt;/b&gt;" style="text;html=1;align=center;verticalAlign=middle;resizable=0;points=[];autosize=1;strokeColor=none;fillColor=none;" vertex="1" parent="WIyWlLk6GJQsqaUBKTNV-1">
          <mxGeometry x="150" y="450" width="40" height="30" as="geometry" />
        </mxCell>
        <mxCell id="LpYJtgIqMoZLmwXfNO1s-43" style="edgeStyle=orthogonalEdgeStyle;rounded=0;orthogonalLoop=1;jettySize=auto;html=1;entryX=0.5;entryY=0;entryDx=0;entryDy=0;" edge="1" parent="WIyWlLk6GJQsqaUBKTNV-1" source="LpYJtgIqMoZLmwXfNO1s-29">
          <mxGeometry relative="1" as="geometry">
            <mxPoint x="330" y="722.9999999999998" as="targetPoint" />
          </mxGeometry>
        </mxCell>
        <mxCell id="LpYJtgIqMoZLmwXfNO1s-29" value="&lt;b&gt;Input kitta and month once&lt;/b&gt;" style="shape=parallelogram;perimeter=parallelogramPerimeter;whiteSpace=wrap;html=1;fixedSize=1;rounded=0;" vertex="1" parent="WIyWlLk6GJQsqaUBKTNV-1">
          <mxGeometry x="310" y="608.12" width="180" height="50" as="geometry" />
        </mxCell>
        <mxCell id="LpYJtgIqMoZLmwXfNO1s-41" value="" style="edgeStyle=orthogonalEdgeStyle;rounded=0;orthogonalLoop=1;jettySize=auto;html=1;" edge="1" parent="WIyWlLk6GJQsqaUBKTNV-1" source="LpYJtgIqMoZLmwXfNO1s-30" target="LpYJtgIqMoZLmwXfNO1s-40">
          <mxGeometry relative="1" as="geometry" />
        </mxCell>
        <mxCell id="LpYJtgIqMoZLmwXfNO1s-30" value="&lt;b&gt;Input kitta and month multiple&amp;nbsp;&lt;/b&gt;" style="shape=parallelogram;perimeter=parallelogramPerimeter;whiteSpace=wrap;html=1;fixedSize=1;rounded=0;" vertex="1" parent="WIyWlLk6GJQsqaUBKTNV-1">
          <mxGeometry x="-20" y="453.88" width="160" height="50" as="geometry" />
        </mxCell>
        <mxCell id="LpYJtgIqMoZLmwXfNO1s-33" value="&lt;b&gt;Read datas.txt&lt;/b&gt;" style="rounded=0;whiteSpace=wrap;html=1;" vertex="1" parent="WIyWlLk6GJQsqaUBKTNV-1">
          <mxGeometry x="157.5" y="320" width="140" height="40" as="geometry" />
        </mxCell>
        <mxCell id="LpYJtgIqMoZLmwXfNO1s-38" value="" style="endArrow=classic;html=1;rounded=0;entryX=0.452;entryY=0.082;entryDx=0;entryDy=0;entryPerimeter=0;exitX=0.406;exitY=1.05;exitDx=0;exitDy=0;exitPerimeter=0;" edge="1" parent="WIyWlLk6GJQsqaUBKTNV-1" source="LpYJtgIqMoZLmwXfNO1s-33" target="LpYJtgIqMoZLmwXfNO1s-13">
          <mxGeometry width="50" height="50" relative="1" as="geometry">
            <mxPoint x="130" y="260" as="sourcePoint" />
            <mxPoint x="180" y="210" as="targetPoint" />
          </mxGeometry>
        </mxCell>
        <mxCell id="LpYJtgIqMoZLmwXfNO1s-47" value="" style="edgeStyle=orthogonalEdgeStyle;rounded=0;orthogonalLoop=1;jettySize=auto;html=1;" edge="1" parent="WIyWlLk6GJQsqaUBKTNV-1" source="LpYJtgIqMoZLmwXfNO1s-40" target="LpYJtgIqMoZLmwXfNO1s-46">
          <mxGeometry relative="1" as="geometry" />
        </mxCell>
        <mxCell id="LpYJtgIqMoZLmwXfNO1s-40" value="&lt;b&gt;Is kitta&lt;/b&gt;&lt;div&gt;&lt;b&gt;&amp;nbsp;and month&amp;nbsp;&lt;/b&gt;&lt;div&gt;&lt;b&gt;Valid&lt;/b&gt;&lt;/div&gt;&lt;/div&gt;" style="rhombus;whiteSpace=wrap;html=1;" vertex="1" parent="WIyWlLk6GJQsqaUBKTNV-1">
          <mxGeometry x="20" y="528.75" width="80" height="81.25" as="geometry" />
        </mxCell>
        <mxCell id="LpYJtgIqMoZLmwXfNO1s-44" style="edgeStyle=orthogonalEdgeStyle;rounded=0;orthogonalLoop=1;jettySize=auto;html=1;exitX=1;exitY=0.5;exitDx=0;exitDy=0;entryX=1;entryY=0.5;entryDx=0;entryDy=0;" edge="1" parent="WIyWlLk6GJQsqaUBKTNV-1" source="LpYJtgIqMoZLmwXfNO1s-40">
          <mxGeometry relative="1" as="geometry">
            <mxPoint x="125.45000000000005" y="492.5" as="targetPoint" />
            <Array as="points">
              <mxPoint x="157" y="569" />
              <mxPoint x="157" y="492" />
            </Array>
            <mxPoint x="107.45000000000005" y="577.5" as="sourcePoint" />
          </mxGeometry>
        </mxCell>
        <mxCell id="LpYJtgIqMoZLmwXfNO1s-45" value="&lt;b&gt;No&lt;/b&gt;" style="text;html=1;align=center;verticalAlign=middle;resizable=0;points=[];autosize=1;strokeColor=none;fillColor=none;" vertex="1" parent="WIyWlLk6GJQsqaUBKTNV-1">
          <mxGeometry x="100" y="570" width="40" height="30" as="geometry" />
        </mxCell>
        <mxCell id="LpYJtgIqMoZLmwXfNO1s-49" value="" style="edgeStyle=orthogonalEdgeStyle;rounded=0;orthogonalLoop=1;jettySize=auto;html=1;" edge="1" parent="WIyWlLk6GJQsqaUBKTNV-1" source="LpYJtgIqMoZLmwXfNO1s-46" target="LpYJtgIqMoZLmwXfNO1s-48">
          <mxGeometry relative="1" as="geometry" />
        </mxCell>
        <mxCell id="LpYJtgIqMoZLmwXfNO1s-46" value="&lt;b&gt;Input Name&lt;/b&gt;" style="shape=parallelogram;perimeter=parallelogramPerimeter;whiteSpace=wrap;html=1;fixedSize=1;rounded=0;" vertex="1" parent="WIyWlLk6GJQsqaUBKTNV-1">
          <mxGeometry x="11.25" y="646.25" width="97.5" height="40" as="geometry" />
        </mxCell>
        <mxCell id="LpYJtgIqMoZLmwXfNO1s-52" style="edgeStyle=orthogonalEdgeStyle;rounded=0;orthogonalLoop=1;jettySize=auto;html=1;entryX=1;entryY=0.5;entryDx=0;entryDy=0;" edge="1" parent="WIyWlLk6GJQsqaUBKTNV-1" source="LpYJtgIqMoZLmwXfNO1s-48" target="LpYJtgIqMoZLmwXfNO1s-46">
          <mxGeometry relative="1" as="geometry">
            <mxPoint x="120" y="660" as="targetPoint" />
            <Array as="points">
              <mxPoint x="130" y="760" />
              <mxPoint x="130" y="666" />
            </Array>
          </mxGeometry>
        </mxCell>
        <mxCell id="LpYJtgIqMoZLmwXfNO1s-56" value="" style="edgeStyle=orthogonalEdgeStyle;rounded=0;orthogonalLoop=1;jettySize=auto;html=1;" edge="1" parent="WIyWlLk6GJQsqaUBKTNV-1" source="LpYJtgIqMoZLmwXfNO1s-48" target="LpYJtgIqMoZLmwXfNO1s-55">
          <mxGeometry relative="1" as="geometry" />
        </mxCell>
        <mxCell id="LpYJtgIqMoZLmwXfNO1s-48" value="&lt;b&gt;Is name&lt;br&gt;Valid&lt;/b&gt;" style="rhombus;whiteSpace=wrap;html=1;" vertex="1" parent="WIyWlLk6GJQsqaUBKTNV-1">
          <mxGeometry x="20" y="727.5" width="80" height="65" as="geometry" />
        </mxCell>
        <mxCell id="LpYJtgIqMoZLmwXfNO1s-53" value="&lt;b&gt;Yes&lt;/b&gt;" style="text;html=1;align=center;verticalAlign=middle;resizable=0;points=[];autosize=1;strokeColor=none;fillColor=none;" vertex="1" parent="WIyWlLk6GJQsqaUBKTNV-1">
          <mxGeometry x="20" y="607.5" width="40" height="30" as="geometry" />
        </mxCell>
        <mxCell id="LpYJtgIqMoZLmwXfNO1s-54" value="&lt;b&gt;No&lt;/b&gt;" style="text;html=1;align=center;verticalAlign=middle;resizable=0;points=[];autosize=1;strokeColor=none;fillColor=none;" vertex="1" parent="WIyWlLk6GJQsqaUBKTNV-1">
          <mxGeometry x="90" y="730" width="40" height="30" as="geometry" />
        </mxCell>
        <mxCell id="LpYJtgIqMoZLmwXfNO1s-60" value="" style="edgeStyle=orthogonalEdgeStyle;rounded=0;orthogonalLoop=1;jettySize=auto;html=1;" edge="1" parent="WIyWlLk6GJQsqaUBKTNV-1" source="LpYJtgIqMoZLmwXfNO1s-55" target="LpYJtgIqMoZLmwXfNO1s-59">
          <mxGeometry relative="1" as="geometry" />
        </mxCell>
        <mxCell id="LpYJtgIqMoZLmwXfNO1s-55" value="&lt;b&gt;Input contact number&amp;nbsp;&lt;/b&gt;" style="shape=parallelogram;perimeter=parallelogramPerimeter;whiteSpace=wrap;html=1;fixedSize=1;rounded=0;" vertex="1" parent="WIyWlLk6GJQsqaUBKTNV-1">
          <mxGeometry x="2.5" y="827" width="115" height="50" as="geometry" />
        </mxCell>
        <mxCell id="LpYJtgIqMoZLmwXfNO1s-67" value="" style="edgeStyle=orthogonalEdgeStyle;rounded=0;orthogonalLoop=1;jettySize=auto;html=1;" edge="1" parent="WIyWlLk6GJQsqaUBKTNV-1" source="LpYJtgIqMoZLmwXfNO1s-59" target="LpYJtgIqMoZLmwXfNO1s-66">
          <mxGeometry relative="1" as="geometry" />
        </mxCell>
        <mxCell id="LpYJtgIqMoZLmwXfNO1s-59" value="&lt;b&gt;Is contact&amp;nbsp;&lt;/b&gt;&lt;div&gt;&lt;b&gt;Valid&lt;/b&gt;&lt;/div&gt;" style="rhombus;whiteSpace=wrap;html=1;" vertex="1" parent="WIyWlLk6GJQsqaUBKTNV-1">
          <mxGeometry x="17.5" y="900" width="85" height="70" as="geometry" />
        </mxCell>
        <mxCell id="LpYJtgIqMoZLmwXfNO1s-61" value="&lt;b&gt;Yes&lt;/b&gt;" style="text;html=1;align=center;verticalAlign=middle;resizable=0;points=[];autosize=1;strokeColor=none;fillColor=none;" vertex="1" parent="WIyWlLk6GJQsqaUBKTNV-1">
          <mxGeometry x="17.5" y="792.5" width="40" height="30" as="geometry" />
        </mxCell>
        <mxCell id="LpYJtgIqMoZLmwXfNO1s-64" style="edgeStyle=orthogonalEdgeStyle;rounded=0;orthogonalLoop=1;jettySize=auto;html=1;entryX=1;entryY=0.5;entryDx=0;entryDy=0;exitX=1;exitY=0.5;exitDx=0;exitDy=0;" edge="1" parent="WIyWlLk6GJQsqaUBKTNV-1" source="LpYJtgIqMoZLmwXfNO1s-59">
          <mxGeometry relative="1" as="geometry">
            <mxPoint x="108.75" y="846" as="targetPoint" />
            <mxPoint x="109.75" y="940" as="sourcePoint" />
            <Array as="points">
              <mxPoint x="140" y="935" />
              <mxPoint x="140" y="846" />
            </Array>
          </mxGeometry>
        </mxCell>
        <mxCell id="LpYJtgIqMoZLmwXfNO1s-65" value="&lt;b&gt;No&lt;/b&gt;" style="text;html=1;align=center;verticalAlign=middle;resizable=0;points=[];autosize=1;strokeColor=none;fillColor=none;" vertex="1" parent="WIyWlLk6GJQsqaUBKTNV-1">
          <mxGeometry x="100" y="910" width="40" height="30" as="geometry" />
        </mxCell>
        <mxCell id="LpYJtgIqMoZLmwXfNO1s-66" value="&lt;b&gt;Print and&lt;/b&gt;&lt;div&gt;&lt;b&gt;Generate Bill&lt;/b&gt;&lt;/div&gt;" style="shape=parallelogram;perimeter=parallelogramPerimeter;whiteSpace=wrap;html=1;fixedSize=1;rounded=0;" vertex="1" parent="WIyWlLk6GJQsqaUBKTNV-1">
          <mxGeometry y="1010" width="120" height="50" as="geometry" />
        </mxCell>
        <mxCell id="LpYJtgIqMoZLmwXfNO1s-69" value="" style="edgeStyle=orthogonalEdgeStyle;rounded=0;orthogonalLoop=1;jettySize=auto;html=1;" edge="1" parent="WIyWlLk6GJQsqaUBKTNV-1" source="LpYJtgIqMoZLmwXfNO1s-70" target="LpYJtgIqMoZLmwXfNO1s-73">
          <mxGeometry relative="1" as="geometry" />
        </mxCell>
        <mxCell id="LpYJtgIqMoZLmwXfNO1s-70" value="&lt;b&gt;Is kitta&lt;/b&gt;&lt;div&gt;&lt;b&gt;&amp;nbsp;and month&amp;nbsp;&lt;/b&gt;&lt;div&gt;&lt;b&gt;Valid&lt;/b&gt;&lt;/div&gt;&lt;/div&gt;" style="rhombus;whiteSpace=wrap;html=1;" vertex="1" parent="WIyWlLk6GJQsqaUBKTNV-1">
          <mxGeometry x="289.95" y="723.75" width="80" height="81.25" as="geometry" />
        </mxCell>
        <mxCell id="LpYJtgIqMoZLmwXfNO1s-71" value="&lt;b&gt;No&lt;/b&gt;" style="text;html=1;align=center;verticalAlign=middle;resizable=0;points=[];autosize=1;strokeColor=none;fillColor=none;" vertex="1" parent="WIyWlLk6GJQsqaUBKTNV-1">
          <mxGeometry x="374.06" y="735" width="40" height="30" as="geometry" />
        </mxCell>
        <mxCell id="LpYJtgIqMoZLmwXfNO1s-72" value="" style="edgeStyle=orthogonalEdgeStyle;rounded=0;orthogonalLoop=1;jettySize=auto;html=1;" edge="1" parent="WIyWlLk6GJQsqaUBKTNV-1" source="LpYJtgIqMoZLmwXfNO1s-73" target="LpYJtgIqMoZLmwXfNO1s-76">
          <mxGeometry relative="1" as="geometry" />
        </mxCell>
        <mxCell id="LpYJtgIqMoZLmwXfNO1s-73" value="&lt;b&gt;Input Name&lt;/b&gt;" style="shape=parallelogram;perimeter=parallelogramPerimeter;whiteSpace=wrap;html=1;fixedSize=1;rounded=0;" vertex="1" parent="WIyWlLk6GJQsqaUBKTNV-1">
          <mxGeometry x="281.2" y="841.25" width="97.5" height="40" as="geometry" />
        </mxCell>
        <mxCell id="LpYJtgIqMoZLmwXfNO1s-74" style="edgeStyle=orthogonalEdgeStyle;rounded=0;orthogonalLoop=1;jettySize=auto;html=1;entryX=1;entryY=0.5;entryDx=0;entryDy=0;" edge="1" parent="WIyWlLk6GJQsqaUBKTNV-1" source="LpYJtgIqMoZLmwXfNO1s-76" target="LpYJtgIqMoZLmwXfNO1s-73">
          <mxGeometry relative="1" as="geometry">
            <mxPoint x="389.95" y="855" as="targetPoint" />
            <Array as="points">
              <mxPoint x="399.95" y="955" />
              <mxPoint x="399.95" y="861" />
            </Array>
          </mxGeometry>
        </mxCell>
        <mxCell id="LpYJtgIqMoZLmwXfNO1s-75" value="" style="edgeStyle=orthogonalEdgeStyle;rounded=0;orthogonalLoop=1;jettySize=auto;html=1;" edge="1" parent="WIyWlLk6GJQsqaUBKTNV-1" source="LpYJtgIqMoZLmwXfNO1s-76" target="LpYJtgIqMoZLmwXfNO1s-80">
          <mxGeometry relative="1" as="geometry" />
        </mxCell>
        <mxCell id="LpYJtgIqMoZLmwXfNO1s-76" value="&lt;b&gt;Is name&lt;br&gt;Valid&lt;/b&gt;" style="rhombus;whiteSpace=wrap;html=1;" vertex="1" parent="WIyWlLk6GJQsqaUBKTNV-1">
          <mxGeometry x="289.95" y="922.5" width="80" height="65" as="geometry" />
        </mxCell>
        <mxCell id="LpYJtgIqMoZLmwXfNO1s-77" value="&lt;b&gt;Yes&lt;/b&gt;" style="text;html=1;align=center;verticalAlign=middle;resizable=0;points=[];autosize=1;strokeColor=none;fillColor=none;" vertex="1" parent="WIyWlLk6GJQsqaUBKTNV-1">
          <mxGeometry x="289.95" y="802.5" width="40" height="30" as="geometry" />
        </mxCell>
        <mxCell id="LpYJtgIqMoZLmwXfNO1s-78" value="&lt;b&gt;No&lt;/b&gt;" style="text;html=1;align=center;verticalAlign=middle;resizable=0;points=[];autosize=1;strokeColor=none;fillColor=none;" vertex="1" parent="WIyWlLk6GJQsqaUBKTNV-1">
          <mxGeometry x="359.95" y="925" width="40" height="30" as="geometry" />
        </mxCell>
        <mxCell id="LpYJtgIqMoZLmwXfNO1s-79" value="" style="edgeStyle=orthogonalEdgeStyle;rounded=0;orthogonalLoop=1;jettySize=auto;html=1;" edge="1" parent="WIyWlLk6GJQsqaUBKTNV-1" source="LpYJtgIqMoZLmwXfNO1s-80" target="LpYJtgIqMoZLmwXfNO1s-82">
          <mxGeometry relative="1" as="geometry" />
        </mxCell>
        <mxCell id="LpYJtgIqMoZLmwXfNO1s-80" value="&lt;b&gt;Input contact number&amp;nbsp;&lt;/b&gt;" style="shape=parallelogram;perimeter=parallelogramPerimeter;whiteSpace=wrap;html=1;fixedSize=1;rounded=0;" vertex="1" parent="WIyWlLk6GJQsqaUBKTNV-1">
          <mxGeometry x="272.45" y="1022" width="115" height="50" as="geometry" />
        </mxCell>
        <mxCell id="LpYJtgIqMoZLmwXfNO1s-81" value="" style="edgeStyle=orthogonalEdgeStyle;rounded=0;orthogonalLoop=1;jettySize=auto;html=1;" edge="1" parent="WIyWlLk6GJQsqaUBKTNV-1" source="LpYJtgIqMoZLmwXfNO1s-82" target="LpYJtgIqMoZLmwXfNO1s-86">
          <mxGeometry relative="1" as="geometry" />
        </mxCell>
        <mxCell id="LpYJtgIqMoZLmwXfNO1s-82" value="&lt;b&gt;Is contact&amp;nbsp;&lt;/b&gt;&lt;div&gt;&lt;b&gt;Valid&lt;/b&gt;&lt;/div&gt;" style="rhombus;whiteSpace=wrap;html=1;" vertex="1" parent="WIyWlLk6GJQsqaUBKTNV-1">
          <mxGeometry x="287.45" y="1095" width="85" height="70" as="geometry" />
        </mxCell>
        <mxCell id="LpYJtgIqMoZLmwXfNO1s-83" value="&lt;b&gt;Yes&lt;/b&gt;" style="text;html=1;align=center;verticalAlign=middle;resizable=0;points=[];autosize=1;strokeColor=none;fillColor=none;" vertex="1" parent="WIyWlLk6GJQsqaUBKTNV-1">
          <mxGeometry x="287.45" y="987.5" width="40" height="30" as="geometry" />
        </mxCell>
        <mxCell id="LpYJtgIqMoZLmwXfNO1s-84" style="edgeStyle=orthogonalEdgeStyle;rounded=0;orthogonalLoop=1;jettySize=auto;html=1;entryX=1;entryY=0.5;entryDx=0;entryDy=0;exitX=1;exitY=0.5;exitDx=0;exitDy=0;" edge="1" parent="WIyWlLk6GJQsqaUBKTNV-1" source="LpYJtgIqMoZLmwXfNO1s-82">
          <mxGeometry relative="1" as="geometry">
            <mxPoint x="378.7" y="1041" as="targetPoint" />
            <mxPoint x="379.7" y="1135" as="sourcePoint" />
            <Array as="points">
              <mxPoint x="409.95" y="1130" />
              <mxPoint x="409.95" y="1041" />
            </Array>
          </mxGeometry>
        </mxCell>
        <mxCell id="LpYJtgIqMoZLmwXfNO1s-85" value="&lt;b&gt;No&lt;/b&gt;" style="text;html=1;align=center;verticalAlign=middle;resizable=0;points=[];autosize=1;strokeColor=none;fillColor=none;" vertex="1" parent="WIyWlLk6GJQsqaUBKTNV-1">
          <mxGeometry x="369.95" y="1105" width="40" height="30" as="geometry" />
        </mxCell>
        <mxCell id="LpYJtgIqMoZLmwXfNO1s-86" value="&lt;b&gt;Print and&lt;/b&gt;&lt;div&gt;&lt;b&gt;Generate Bill&lt;/b&gt;&lt;/div&gt;" style="shape=parallelogram;perimeter=parallelogramPerimeter;whiteSpace=wrap;html=1;fixedSize=1;rounded=0;" vertex="1" parent="WIyWlLk6GJQsqaUBKTNV-1">
          <mxGeometry x="269.95" y="1205" width="120" height="50" as="geometry" />
        </mxCell>
        <mxCell id="LpYJtgIqMoZLmwXfNO1s-92" value="" style="endArrow=classic;html=1;rounded=0;" edge="1" parent="WIyWlLk6GJQsqaUBKTNV-1">
          <mxGeometry width="50" height="50" relative="1" as="geometry">
            <mxPoint x="382.76" y="1228.19" as="sourcePoint" />
            <mxPoint x="418.7" y="1228.19" as="targetPoint" />
          </mxGeometry>
        </mxCell>
        <mxCell id="LpYJtgIqMoZLmwXfNO1s-93" value="&lt;b&gt;M&lt;/b&gt;" style="ellipse;whiteSpace=wrap;html=1;rounded=0;" vertex="1" parent="WIyWlLk6GJQsqaUBKTNV-1">
          <mxGeometry x="423.7" y="1207.5" width="35" height="37.5" as="geometry" />
        </mxCell>
        <mxCell id="LpYJtgIqMoZLmwXfNO1s-95" value="" style="endArrow=classic;html=1;rounded=0;" edge="1" parent="WIyWlLk6GJQsqaUBKTNV-1">
          <mxGeometry width="50" height="50" relative="1" as="geometry">
            <mxPoint x="382.76" y="1228.19" as="sourcePoint" />
            <mxPoint x="418.7" y="1228.19" as="targetPoint" />
          </mxGeometry>
        </mxCell>
        <mxCell id="LpYJtgIqMoZLmwXfNO1s-97" value="" style="endArrow=classic;html=1;rounded=0;" edge="1" parent="WIyWlLk6GJQsqaUBKTNV-1">
          <mxGeometry width="50" height="50" relative="1" as="geometry">
            <mxPoint x="114.06" y="1036.94" as="sourcePoint" />
            <mxPoint x="150" y="1036.94" as="targetPoint" />
          </mxGeometry>
        </mxCell>
        <mxCell id="LpYJtgIqMoZLmwXfNO1s-98" value="&lt;b&gt;M&lt;/b&gt;" style="ellipse;whiteSpace=wrap;html=1;rounded=0;" vertex="1" parent="WIyWlLk6GJQsqaUBKTNV-1">
          <mxGeometry x="155" y="1016.25" width="35" height="37.5" as="geometry" />
        </mxCell>
        <mxCell id="LpYJtgIqMoZLmwXfNO1s-99" value="" style="endArrow=classic;html=1;rounded=0;" edge="1" parent="WIyWlLk6GJQsqaUBKTNV-1">
          <mxGeometry width="50" height="50" relative="1" as="geometry">
            <mxPoint x="114.06" y="1036.94" as="sourcePoint" />
            <mxPoint x="150" y="1036.94" as="targetPoint" />
          </mxGeometry>
        </mxCell>
        <mxCell id="LpYJtgIqMoZLmwXfNO1s-102" value="" style="edgeStyle=orthogonalEdgeStyle;rounded=0;orthogonalLoop=1;jettySize=auto;html=1;" edge="1" parent="WIyWlLk6GJQsqaUBKTNV-1" source="LpYJtgIqMoZLmwXfNO1s-103" target="LpYJtgIqMoZLmwXfNO1s-105">
          <mxGeometry relative="1" as="geometry" />
        </mxCell>
        <mxCell id="LpYJtgIqMoZLmwXfNO1s-103" value="&lt;b&gt;Conform R&lt;/b&gt;" style="shape=parallelogram;perimeter=parallelogramPerimeter;whiteSpace=wrap;html=1;fixedSize=1;" vertex="1" parent="WIyWlLk6GJQsqaUBKTNV-1">
          <mxGeometry x="610" y="428.5" width="103.75" height="35" as="geometry" />
        </mxCell>
        <mxCell id="LpYJtgIqMoZLmwXfNO1s-125" value="" style="edgeStyle=orthogonalEdgeStyle;rounded=0;orthogonalLoop=1;jettySize=auto;html=1;" edge="1" parent="WIyWlLk6GJQsqaUBKTNV-1" source="LpYJtgIqMoZLmwXfNO1s-105" target="LpYJtgIqMoZLmwXfNO1s-106">
          <mxGeometry relative="1" as="geometry" />
        </mxCell>
        <mxCell id="LpYJtgIqMoZLmwXfNO1s-127" style="edgeStyle=orthogonalEdgeStyle;rounded=0;orthogonalLoop=1;jettySize=auto;html=1;entryX=0;entryY=0.5;entryDx=0;entryDy=0;" edge="1" parent="WIyWlLk6GJQsqaUBKTNV-1" source="LpYJtgIqMoZLmwXfNO1s-105" target="LpYJtgIqMoZLmwXfNO1s-118">
          <mxGeometry relative="1" as="geometry" />
        </mxCell>
        <mxCell id="LpYJtgIqMoZLmwXfNO1s-105" value="&lt;b&gt;R&lt;/b&gt;&lt;br&gt;&lt;div&gt;&lt;b&gt;==&lt;/b&gt;&lt;/div&gt;&lt;div&gt;&lt;b&gt;yes&lt;/b&gt;&lt;/div&gt;" style="rhombus;whiteSpace=wrap;html=1;" vertex="1" parent="WIyWlLk6GJQsqaUBKTNV-1">
          <mxGeometry x="630.6300000000001" y="492.5" width="64.37" height="66.25" as="geometry" />
        </mxCell>
        <mxCell id="LpYJtgIqMoZLmwXfNO1s-108" value="&lt;b&gt;M&lt;/b&gt;" style="ellipse;whiteSpace=wrap;html=1;rounded=0;" vertex="1" parent="WIyWlLk6GJQsqaUBKTNV-1">
          <mxGeometry x="560" y="595.12" width="35" height="37.5" as="geometry" />
        </mxCell>
        <mxCell id="LpYJtgIqMoZLmwXfNO1s-109" value="&lt;b&gt;No&lt;/b&gt;" style="text;html=1;align=center;verticalAlign=middle;resizable=0;points=[];autosize=1;strokeColor=none;fillColor=none;" vertex="1" parent="WIyWlLk6GJQsqaUBKTNV-1">
          <mxGeometry x="600" y="580.74" width="40" height="30" as="geometry" />
        </mxCell>
        <mxCell id="LpYJtgIqMoZLmwXfNO1s-121" value="" style="edgeStyle=orthogonalEdgeStyle;rounded=0;orthogonalLoop=1;jettySize=auto;html=1;" edge="1" parent="WIyWlLk6GJQsqaUBKTNV-1" source="LpYJtgIqMoZLmwXfNO1s-118" target="LpYJtgIqMoZLmwXfNO1s-120">
          <mxGeometry relative="1" as="geometry" />
        </mxCell>
        <mxCell id="LpYJtgIqMoZLmwXfNO1s-118" value="&lt;b&gt;Read datas.txt&lt;/b&gt;" style="rounded=0;whiteSpace=wrap;html=1;" vertex="1" parent="WIyWlLk6GJQsqaUBKTNV-1">
          <mxGeometry x="770" y="436.25" width="140" height="40" as="geometry" />
        </mxCell>
        <mxCell id="LpYJtgIqMoZLmwXfNO1s-134" value="" style="edgeStyle=orthogonalEdgeStyle;rounded=0;orthogonalLoop=1;jettySize=auto;html=1;" edge="1" parent="WIyWlLk6GJQsqaUBKTNV-1" source="LpYJtgIqMoZLmwXfNO1s-120" target="LpYJtgIqMoZLmwXfNO1s-130">
          <mxGeometry relative="1" as="geometry" />
        </mxCell>
        <mxCell id="LpYJtgIqMoZLmwXfNO1s-120" value="&lt;b&gt;Choice multiple U&lt;/b&gt;" style="shape=parallelogram;perimeter=parallelogramPerimeter;whiteSpace=wrap;html=1;fixedSize=1;" vertex="1" parent="WIyWlLk6GJQsqaUBKTNV-1">
          <mxGeometry x="769" y="529.5" width="143.75" height="34.37" as="geometry" />
        </mxCell>
        <mxCell id="LpYJtgIqMoZLmwXfNO1s-126" value="" style="edgeStyle=orthogonalEdgeStyle;rounded=0;orthogonalLoop=1;jettySize=auto;html=1;" edge="1" parent="WIyWlLk6GJQsqaUBKTNV-1" source="LpYJtgIqMoZLmwXfNO1s-106" target="LpYJtgIqMoZLmwXfNO1s-108">
          <mxGeometry relative="1" as="geometry" />
        </mxCell>
        <mxCell id="LpYJtgIqMoZLmwXfNO1s-106" value="&lt;b&gt;R&lt;/b&gt;&lt;br&gt;&lt;div&gt;&lt;b&gt;==&lt;/b&gt;&lt;/div&gt;&lt;div&gt;&lt;b&gt;No&lt;/b&gt;&lt;/div&gt;" style="rhombus;whiteSpace=wrap;html=1;" vertex="1" parent="WIyWlLk6GJQsqaUBKTNV-1">
          <mxGeometry x="630.6300000000001" y="580.74" width="64.37" height="66.25" as="geometry" />
        </mxCell>
        <mxCell id="LpYJtgIqMoZLmwXfNO1s-128" value="&lt;b&gt;Yes&lt;/b&gt;" style="text;html=1;align=center;verticalAlign=middle;resizable=0;points=[];autosize=1;strokeColor=none;fillColor=none;" vertex="1" parent="WIyWlLk6GJQsqaUBKTNV-1">
          <mxGeometry x="690" y="492.5" width="40" height="30" as="geometry" />
        </mxCell>
        <mxCell id="LpYJtgIqMoZLmwXfNO1s-129" value="" style="edgeStyle=orthogonalEdgeStyle;rounded=0;orthogonalLoop=1;jettySize=auto;html=1;" edge="1" parent="WIyWlLk6GJQsqaUBKTNV-1" source="LpYJtgIqMoZLmwXfNO1s-130" target="LpYJtgIqMoZLmwXfNO1s-131">
          <mxGeometry relative="1" as="geometry" />
        </mxCell>
        <mxCell id="LpYJtgIqMoZLmwXfNO1s-163" value="" style="edgeStyle=orthogonalEdgeStyle;rounded=0;orthogonalLoop=1;jettySize=auto;html=1;" edge="1" parent="WIyWlLk6GJQsqaUBKTNV-1" source="LpYJtgIqMoZLmwXfNO1s-130" target="LpYJtgIqMoZLmwXfNO1s-138">
          <mxGeometry relative="1" as="geometry" />
        </mxCell>
        <mxCell id="LpYJtgIqMoZLmwXfNO1s-130" value="&lt;b&gt;U&lt;/b&gt;&lt;br&gt;&lt;div&gt;&lt;b&gt;==&lt;/b&gt;&lt;/div&gt;&lt;div&gt;&lt;b&gt;yes&lt;/b&gt;&lt;/div&gt;" style="rhombus;whiteSpace=wrap;html=1;" vertex="1" parent="WIyWlLk6GJQsqaUBKTNV-1">
          <mxGeometry x="808.69" y="617.5" width="64.37" height="66.25" as="geometry" />
        </mxCell>
        <mxCell id="LpYJtgIqMoZLmwXfNO1s-170" value="" style="edgeStyle=orthogonalEdgeStyle;rounded=0;orthogonalLoop=1;jettySize=auto;html=1;" edge="1" parent="WIyWlLk6GJQsqaUBKTNV-1" source="LpYJtgIqMoZLmwXfNO1s-131" target="LpYJtgIqMoZLmwXfNO1s-169">
          <mxGeometry relative="1" as="geometry" />
        </mxCell>
        <mxCell id="LpYJtgIqMoZLmwXfNO1s-131" value="&lt;b&gt;U&lt;/b&gt;&lt;br&gt;&lt;div&gt;&lt;b&gt;==&lt;/b&gt;&lt;/div&gt;&lt;div&gt;&lt;b&gt;No&lt;/b&gt;&lt;/div&gt;" style="rhombus;whiteSpace=wrap;html=1;" vertex="1" parent="WIyWlLk6GJQsqaUBKTNV-1">
          <mxGeometry x="808.69" y="708.75" width="64.37" height="66.25" as="geometry" />
        </mxCell>
        <mxCell id="LpYJtgIqMoZLmwXfNO1s-136" value="&lt;b&gt;yes&lt;/b&gt;" style="text;html=1;align=center;verticalAlign=middle;resizable=0;points=[];autosize=1;strokeColor=none;fillColor=none;" vertex="1" parent="WIyWlLk6GJQsqaUBKTNV-1">
          <mxGeometry x="910" y="620.74" width="40" height="30" as="geometry" />
        </mxCell>
        <mxCell id="LpYJtgIqMoZLmwXfNO1s-137" style="edgeStyle=orthogonalEdgeStyle;rounded=0;orthogonalLoop=1;jettySize=auto;html=1;entryX=0.5;entryY=0;entryDx=0;entryDy=0;" edge="1" parent="WIyWlLk6GJQsqaUBKTNV-1" source="LpYJtgIqMoZLmwXfNO1s-138" target="LpYJtgIqMoZLmwXfNO1s-140">
          <mxGeometry relative="1" as="geometry" />
        </mxCell>
        <mxCell id="LpYJtgIqMoZLmwXfNO1s-138" value="&lt;b&gt;Input kitta&lt;/b&gt;&lt;div&gt;&lt;b&gt;&amp;nbsp;and month multiple&amp;nbsp;&lt;/b&gt;&lt;br&gt;&lt;/div&gt;" style="shape=parallelogram;perimeter=parallelogramPerimeter;whiteSpace=wrap;html=1;fixedSize=1;rounded=0;" vertex="1" parent="WIyWlLk6GJQsqaUBKTNV-1">
          <mxGeometry x="972.5" y="625.86" width="180" height="50" as="geometry" />
        </mxCell>
        <mxCell id="LpYJtgIqMoZLmwXfNO1s-165" value="" style="edgeStyle=orthogonalEdgeStyle;rounded=0;orthogonalLoop=1;jettySize=auto;html=1;" edge="1" parent="WIyWlLk6GJQsqaUBKTNV-1" source="LpYJtgIqMoZLmwXfNO1s-140" target="LpYJtgIqMoZLmwXfNO1s-145">
          <mxGeometry relative="1" as="geometry" />
        </mxCell>
        <mxCell id="LpYJtgIqMoZLmwXfNO1s-140" value="&lt;b&gt;Is kitta&lt;/b&gt;&lt;div&gt;&lt;b&gt;&amp;nbsp;and month&amp;nbsp;&lt;/b&gt;&lt;div&gt;&lt;b&gt;Valid&lt;/b&gt;&lt;/div&gt;&lt;/div&gt;" style="rhombus;whiteSpace=wrap;html=1;" vertex="1" parent="WIyWlLk6GJQsqaUBKTNV-1">
          <mxGeometry x="952.5" y="740.74" width="80" height="81.25" as="geometry" />
        </mxCell>
        <mxCell id="LpYJtgIqMoZLmwXfNO1s-144" value="" style="edgeStyle=orthogonalEdgeStyle;rounded=0;orthogonalLoop=1;jettySize=auto;html=1;" edge="1" parent="WIyWlLk6GJQsqaUBKTNV-1" source="LpYJtgIqMoZLmwXfNO1s-145" target="LpYJtgIqMoZLmwXfNO1s-148">
          <mxGeometry relative="1" as="geometry" />
        </mxCell>
        <mxCell id="LpYJtgIqMoZLmwXfNO1s-145" value="&lt;b&gt;Input Name&lt;/b&gt;" style="shape=parallelogram;perimeter=parallelogramPerimeter;whiteSpace=wrap;html=1;fixedSize=1;rounded=0;" vertex="1" parent="WIyWlLk6GJQsqaUBKTNV-1">
          <mxGeometry x="944.25" y="865" width="97.5" height="40" as="geometry" />
        </mxCell>
        <mxCell id="LpYJtgIqMoZLmwXfNO1s-146" style="edgeStyle=orthogonalEdgeStyle;rounded=0;orthogonalLoop=1;jettySize=auto;html=1;entryX=1;entryY=0.5;entryDx=0;entryDy=0;" edge="1" parent="WIyWlLk6GJQsqaUBKTNV-1" source="LpYJtgIqMoZLmwXfNO1s-148" target="LpYJtgIqMoZLmwXfNO1s-145">
          <mxGeometry relative="1" as="geometry">
            <mxPoint x="1053" y="878.75" as="targetPoint" />
            <Array as="points">
              <mxPoint x="1063" y="978.75" />
              <mxPoint x="1063" y="884.75" />
            </Array>
          </mxGeometry>
        </mxCell>
        <mxCell id="LpYJtgIqMoZLmwXfNO1s-147" value="" style="edgeStyle=orthogonalEdgeStyle;rounded=0;orthogonalLoop=1;jettySize=auto;html=1;" edge="1" parent="WIyWlLk6GJQsqaUBKTNV-1" source="LpYJtgIqMoZLmwXfNO1s-148" target="LpYJtgIqMoZLmwXfNO1s-152">
          <mxGeometry relative="1" as="geometry" />
        </mxCell>
        <mxCell id="LpYJtgIqMoZLmwXfNO1s-148" value="&lt;b&gt;Is name&lt;br&gt;Valid&lt;/b&gt;" style="rhombus;whiteSpace=wrap;html=1;" vertex="1" parent="WIyWlLk6GJQsqaUBKTNV-1">
          <mxGeometry x="953" y="946.25" width="80" height="65" as="geometry" />
        </mxCell>
        <mxCell id="LpYJtgIqMoZLmwXfNO1s-150" value="&lt;b&gt;No&lt;/b&gt;" style="text;html=1;align=center;verticalAlign=middle;resizable=0;points=[];autosize=1;strokeColor=none;fillColor=none;" vertex="1" parent="WIyWlLk6GJQsqaUBKTNV-1">
          <mxGeometry x="1023" y="948.75" width="40" height="30" as="geometry" />
        </mxCell>
        <mxCell id="LpYJtgIqMoZLmwXfNO1s-151" value="" style="edgeStyle=orthogonalEdgeStyle;rounded=0;orthogonalLoop=1;jettySize=auto;html=1;" edge="1" parent="WIyWlLk6GJQsqaUBKTNV-1" source="LpYJtgIqMoZLmwXfNO1s-152" target="LpYJtgIqMoZLmwXfNO1s-154">
          <mxGeometry relative="1" as="geometry" />
        </mxCell>
        <mxCell id="LpYJtgIqMoZLmwXfNO1s-152" value="&lt;b&gt;Input contact number&amp;nbsp;&lt;/b&gt;" style="shape=parallelogram;perimeter=parallelogramPerimeter;whiteSpace=wrap;html=1;fixedSize=1;rounded=0;" vertex="1" parent="WIyWlLk6GJQsqaUBKTNV-1">
          <mxGeometry x="935.5" y="1045.75" width="115" height="50" as="geometry" />
        </mxCell>
        <mxCell id="LpYJtgIqMoZLmwXfNO1s-153" value="" style="edgeStyle=orthogonalEdgeStyle;rounded=0;orthogonalLoop=1;jettySize=auto;html=1;" edge="1" parent="WIyWlLk6GJQsqaUBKTNV-1" source="LpYJtgIqMoZLmwXfNO1s-154" target="LpYJtgIqMoZLmwXfNO1s-158">
          <mxGeometry relative="1" as="geometry" />
        </mxCell>
        <mxCell id="LpYJtgIqMoZLmwXfNO1s-154" value="&lt;b&gt;Is contact&amp;nbsp;&lt;/b&gt;&lt;div&gt;&lt;b&gt;Valid&lt;/b&gt;&lt;/div&gt;" style="rhombus;whiteSpace=wrap;html=1;" vertex="1" parent="WIyWlLk6GJQsqaUBKTNV-1">
          <mxGeometry x="950.5" y="1118.75" width="85" height="70" as="geometry" />
        </mxCell>
        <mxCell id="LpYJtgIqMoZLmwXfNO1s-155" value="&lt;b&gt;Yes&lt;/b&gt;" style="text;html=1;align=center;verticalAlign=middle;resizable=0;points=[];autosize=1;strokeColor=none;fillColor=none;" vertex="1" parent="WIyWlLk6GJQsqaUBKTNV-1">
          <mxGeometry x="950.5" y="1011.25" width="40" height="30" as="geometry" />
        </mxCell>
        <mxCell id="LpYJtgIqMoZLmwXfNO1s-156" style="edgeStyle=orthogonalEdgeStyle;rounded=0;orthogonalLoop=1;jettySize=auto;html=1;entryX=1;entryY=0.5;entryDx=0;entryDy=0;exitX=1;exitY=0.5;exitDx=0;exitDy=0;" edge="1" parent="WIyWlLk6GJQsqaUBKTNV-1" source="LpYJtgIqMoZLmwXfNO1s-154">
          <mxGeometry relative="1" as="geometry">
            <mxPoint x="1041.75" y="1064.75" as="targetPoint" />
            <mxPoint x="1042.75" y="1158.75" as="sourcePoint" />
            <Array as="points">
              <mxPoint x="1073" y="1153.75" />
              <mxPoint x="1073" y="1064.75" />
            </Array>
          </mxGeometry>
        </mxCell>
        <mxCell id="LpYJtgIqMoZLmwXfNO1s-157" value="&lt;b&gt;No&lt;/b&gt;" style="text;html=1;align=center;verticalAlign=middle;resizable=0;points=[];autosize=1;strokeColor=none;fillColor=none;" vertex="1" parent="WIyWlLk6GJQsqaUBKTNV-1">
          <mxGeometry x="1033" y="1128.75" width="40" height="30" as="geometry" />
        </mxCell>
        <mxCell id="LpYJtgIqMoZLmwXfNO1s-158" value="&lt;b&gt;Print and&lt;/b&gt;&lt;div&gt;&lt;b&gt;Generate Bill&lt;/b&gt;&lt;/div&gt;" style="shape=parallelogram;perimeter=parallelogramPerimeter;whiteSpace=wrap;html=1;fixedSize=1;rounded=0;" vertex="1" parent="WIyWlLk6GJQsqaUBKTNV-1">
          <mxGeometry x="933" y="1228.75" width="120" height="50" as="geometry" />
        </mxCell>
        <mxCell id="LpYJtgIqMoZLmwXfNO1s-160" value="" style="endArrow=classic;html=1;rounded=0;" edge="1" parent="WIyWlLk6GJQsqaUBKTNV-1">
          <mxGeometry width="50" height="50" relative="1" as="geometry">
            <mxPoint x="1045.81" y="1251.94" as="sourcePoint" />
            <mxPoint x="1081.75" y="1251.94" as="targetPoint" />
          </mxGeometry>
        </mxCell>
        <mxCell id="LpYJtgIqMoZLmwXfNO1s-161" value="&lt;b&gt;M&lt;/b&gt;" style="ellipse;whiteSpace=wrap;html=1;rounded=0;" vertex="1" parent="WIyWlLk6GJQsqaUBKTNV-1">
          <mxGeometry x="1086.75" y="1231.25" width="35" height="37.5" as="geometry" />
        </mxCell>
        <mxCell id="LpYJtgIqMoZLmwXfNO1s-162" value="" style="endArrow=classic;html=1;rounded=0;" edge="1" parent="WIyWlLk6GJQsqaUBKTNV-1">
          <mxGeometry width="50" height="50" relative="1" as="geometry">
            <mxPoint x="1045.81" y="1251.94" as="sourcePoint" />
            <mxPoint x="1081.75" y="1251.94" as="targetPoint" />
          </mxGeometry>
        </mxCell>
        <mxCell id="LpYJtgIqMoZLmwXfNO1s-166" style="edgeStyle=orthogonalEdgeStyle;rounded=0;orthogonalLoop=1;jettySize=auto;html=1;entryX=0.808;entryY=1.01;entryDx=0;entryDy=0;entryPerimeter=0;" edge="1" parent="WIyWlLk6GJQsqaUBKTNV-1" target="LpYJtgIqMoZLmwXfNO1s-138">
          <mxGeometry relative="1" as="geometry">
            <mxPoint x="1033.4963157894738" y="781.2867269736842" as="sourcePoint" />
            <mxPoint x="1173.3099999999997" y="719.4300000000003" as="targetPoint" />
            <Array as="points">
              <mxPoint x="1120" y="781" />
              <mxPoint x="1120" y="719" />
              <mxPoint x="1118" y="719" />
            </Array>
          </mxGeometry>
        </mxCell>
        <mxCell id="LpYJtgIqMoZLmwXfNO1s-167" value="&lt;b&gt;yes&lt;/b&gt;" style="text;html=1;align=center;verticalAlign=middle;resizable=0;points=[];autosize=1;strokeColor=none;fillColor=none;" vertex="1" parent="WIyWlLk6GJQsqaUBKTNV-1">
          <mxGeometry x="950.5" y="837" width="40" height="30" as="geometry" />
        </mxCell>
        <mxCell id="LpYJtgIqMoZLmwXfNO1s-168" value="&lt;b&gt;No&lt;/b&gt;" style="text;html=1;align=center;verticalAlign=middle;resizable=0;points=[];autosize=1;strokeColor=none;fillColor=none;" vertex="1" parent="WIyWlLk6GJQsqaUBKTNV-1">
          <mxGeometry x="1041.75" y="745" width="40" height="30" as="geometry" />
        </mxCell>
        <mxCell id="LpYJtgIqMoZLmwXfNO1s-192" style="edgeStyle=orthogonalEdgeStyle;rounded=0;orthogonalLoop=1;jettySize=auto;html=1;" edge="1" parent="WIyWlLk6GJQsqaUBKTNV-1">
          <mxGeometry relative="1" as="geometry">
            <mxPoint x="659.0000000000005" y="766.75" as="sourcePoint" />
            <mxPoint x="659.0000000000005" y="790.5078125000005" as="targetPoint" />
            <Array as="points">
              <mxPoint x="659" y="780" />
              <mxPoint x="659" y="780" />
            </Array>
          </mxGeometry>
        </mxCell>
        <mxCell id="LpYJtgIqMoZLmwXfNO1s-169" value="&lt;b&gt;Input kitta and month once&lt;/b&gt;" style="shape=parallelogram;perimeter=parallelogramPerimeter;whiteSpace=wrap;html=1;fixedSize=1;rounded=0;" vertex="1" parent="WIyWlLk6GJQsqaUBKTNV-1">
          <mxGeometry x="590" y="716.75" width="180" height="50" as="geometry" />
        </mxCell>
        <mxCell id="LpYJtgIqMoZLmwXfNO1s-171" value="" style="edgeStyle=orthogonalEdgeStyle;rounded=0;orthogonalLoop=1;jettySize=auto;html=1;" edge="1" parent="WIyWlLk6GJQsqaUBKTNV-1" source="LpYJtgIqMoZLmwXfNO1s-172" target="LpYJtgIqMoZLmwXfNO1s-174">
          <mxGeometry relative="1" as="geometry" />
        </mxCell>
        <mxCell id="LpYJtgIqMoZLmwXfNO1s-194" style="edgeStyle=orthogonalEdgeStyle;rounded=0;orthogonalLoop=1;jettySize=auto;html=1;" edge="1" parent="WIyWlLk6GJQsqaUBKTNV-1" source="LpYJtgIqMoZLmwXfNO1s-172">
          <mxGeometry relative="1" as="geometry">
            <mxPoint x="740" y="770" as="targetPoint" />
          </mxGeometry>
        </mxCell>
        <mxCell id="LpYJtgIqMoZLmwXfNO1s-172" value="&lt;b&gt;Is kitta&lt;/b&gt;&lt;div&gt;&lt;b&gt;&amp;nbsp;and month&amp;nbsp;&lt;/b&gt;&lt;div&gt;&lt;b&gt;Valid&lt;/b&gt;&lt;/div&gt;&lt;/div&gt;" style="rhombus;whiteSpace=wrap;html=1;" vertex="1" parent="WIyWlLk6GJQsqaUBKTNV-1">
          <mxGeometry x="619.5" y="790" width="80" height="81.25" as="geometry" />
        </mxCell>
        <mxCell id="LpYJtgIqMoZLmwXfNO1s-173" value="" style="edgeStyle=orthogonalEdgeStyle;rounded=0;orthogonalLoop=1;jettySize=auto;html=1;" edge="1" parent="WIyWlLk6GJQsqaUBKTNV-1" source="LpYJtgIqMoZLmwXfNO1s-174" target="LpYJtgIqMoZLmwXfNO1s-177">
          <mxGeometry relative="1" as="geometry" />
        </mxCell>
        <mxCell id="LpYJtgIqMoZLmwXfNO1s-174" value="&lt;b&gt;Input Name&lt;/b&gt;" style="shape=parallelogram;perimeter=parallelogramPerimeter;whiteSpace=wrap;html=1;fixedSize=1;rounded=0;" vertex="1" parent="WIyWlLk6GJQsqaUBKTNV-1">
          <mxGeometry x="611.25" y="914.26" width="97.5" height="40" as="geometry" />
        </mxCell>
        <mxCell id="LpYJtgIqMoZLmwXfNO1s-175" style="edgeStyle=orthogonalEdgeStyle;rounded=0;orthogonalLoop=1;jettySize=auto;html=1;entryX=1;entryY=0.5;entryDx=0;entryDy=0;" edge="1" parent="WIyWlLk6GJQsqaUBKTNV-1" source="LpYJtgIqMoZLmwXfNO1s-177" target="LpYJtgIqMoZLmwXfNO1s-174">
          <mxGeometry relative="1" as="geometry">
            <mxPoint x="720" y="928.01" as="targetPoint" />
            <Array as="points">
              <mxPoint x="730" y="1028.01" />
              <mxPoint x="730" y="934.01" />
            </Array>
          </mxGeometry>
        </mxCell>
        <mxCell id="LpYJtgIqMoZLmwXfNO1s-176" value="" style="edgeStyle=orthogonalEdgeStyle;rounded=0;orthogonalLoop=1;jettySize=auto;html=1;" edge="1" parent="WIyWlLk6GJQsqaUBKTNV-1" source="LpYJtgIqMoZLmwXfNO1s-177" target="LpYJtgIqMoZLmwXfNO1s-180">
          <mxGeometry relative="1" as="geometry" />
        </mxCell>
        <mxCell id="LpYJtgIqMoZLmwXfNO1s-177" value="&lt;b&gt;Is name&lt;br&gt;Valid&lt;/b&gt;" style="rhombus;whiteSpace=wrap;html=1;" vertex="1" parent="WIyWlLk6GJQsqaUBKTNV-1">
          <mxGeometry x="620" y="995.51" width="80" height="65" as="geometry" />
        </mxCell>
        <mxCell id="LpYJtgIqMoZLmwXfNO1s-178" value="&lt;b&gt;No&lt;/b&gt;" style="text;html=1;align=center;verticalAlign=middle;resizable=0;points=[];autosize=1;strokeColor=none;fillColor=none;" vertex="1" parent="WIyWlLk6GJQsqaUBKTNV-1">
          <mxGeometry x="690" y="998.01" width="40" height="30" as="geometry" />
        </mxCell>
        <mxCell id="LpYJtgIqMoZLmwXfNO1s-179" value="" style="edgeStyle=orthogonalEdgeStyle;rounded=0;orthogonalLoop=1;jettySize=auto;html=1;" edge="1" parent="WIyWlLk6GJQsqaUBKTNV-1" source="LpYJtgIqMoZLmwXfNO1s-180" target="LpYJtgIqMoZLmwXfNO1s-182">
          <mxGeometry relative="1" as="geometry" />
        </mxCell>
        <mxCell id="LpYJtgIqMoZLmwXfNO1s-180" value="&lt;b&gt;Input contact number&amp;nbsp;&lt;/b&gt;" style="shape=parallelogram;perimeter=parallelogramPerimeter;whiteSpace=wrap;html=1;fixedSize=1;rounded=0;" vertex="1" parent="WIyWlLk6GJQsqaUBKTNV-1">
          <mxGeometry x="602.5" y="1095.01" width="115" height="50" as="geometry" />
        </mxCell>
        <mxCell id="LpYJtgIqMoZLmwXfNO1s-181" value="" style="edgeStyle=orthogonalEdgeStyle;rounded=0;orthogonalLoop=1;jettySize=auto;html=1;" edge="1" parent="WIyWlLk6GJQsqaUBKTNV-1" source="LpYJtgIqMoZLmwXfNO1s-182" target="LpYJtgIqMoZLmwXfNO1s-186">
          <mxGeometry relative="1" as="geometry" />
        </mxCell>
        <mxCell id="LpYJtgIqMoZLmwXfNO1s-182" value="&lt;b&gt;Is contact&amp;nbsp;&lt;/b&gt;&lt;div&gt;&lt;b&gt;Valid&lt;/b&gt;&lt;/div&gt;" style="rhombus;whiteSpace=wrap;html=1;" vertex="1" parent="WIyWlLk6GJQsqaUBKTNV-1">
          <mxGeometry x="617.5" y="1168.01" width="85" height="70" as="geometry" />
        </mxCell>
        <mxCell id="LpYJtgIqMoZLmwXfNO1s-183" value="&lt;b&gt;Yes&lt;/b&gt;" style="text;html=1;align=center;verticalAlign=middle;resizable=0;points=[];autosize=1;strokeColor=none;fillColor=none;" vertex="1" parent="WIyWlLk6GJQsqaUBKTNV-1">
          <mxGeometry x="617.5" y="1060.51" width="40" height="30" as="geometry" />
        </mxCell>
        <mxCell id="LpYJtgIqMoZLmwXfNO1s-184" style="edgeStyle=orthogonalEdgeStyle;rounded=0;orthogonalLoop=1;jettySize=auto;html=1;entryX=1;entryY=0.5;entryDx=0;entryDy=0;exitX=1;exitY=0.5;exitDx=0;exitDy=0;" edge="1" parent="WIyWlLk6GJQsqaUBKTNV-1" source="LpYJtgIqMoZLmwXfNO1s-182">
          <mxGeometry relative="1" as="geometry">
            <mxPoint x="708.75" y="1114.01" as="targetPoint" />
            <mxPoint x="709.75" y="1208.01" as="sourcePoint" />
            <Array as="points">
              <mxPoint x="740" y="1203.01" />
              <mxPoint x="740" y="1114.01" />
            </Array>
          </mxGeometry>
        </mxCell>
        <mxCell id="LpYJtgIqMoZLmwXfNO1s-185" value="&lt;b&gt;No&lt;/b&gt;" style="text;html=1;align=center;verticalAlign=middle;resizable=0;points=[];autosize=1;strokeColor=none;fillColor=none;" vertex="1" parent="WIyWlLk6GJQsqaUBKTNV-1">
          <mxGeometry x="700" y="1178.01" width="40" height="30" as="geometry" />
        </mxCell>
        <mxCell id="LpYJtgIqMoZLmwXfNO1s-186" value="&lt;b&gt;Print and&lt;/b&gt;&lt;div&gt;&lt;b&gt;Generate Bill&lt;/b&gt;&lt;/div&gt;" style="shape=parallelogram;perimeter=parallelogramPerimeter;whiteSpace=wrap;html=1;fixedSize=1;rounded=0;" vertex="1" parent="WIyWlLk6GJQsqaUBKTNV-1">
          <mxGeometry x="600" y="1278.01" width="120" height="50" as="geometry" />
        </mxCell>
        <mxCell id="LpYJtgIqMoZLmwXfNO1s-187" value="" style="endArrow=classic;html=1;rounded=0;" edge="1" parent="WIyWlLk6GJQsqaUBKTNV-1">
          <mxGeometry width="50" height="50" relative="1" as="geometry">
            <mxPoint x="712.81" y="1301.2" as="sourcePoint" />
            <mxPoint x="748.75" y="1301.2" as="targetPoint" />
          </mxGeometry>
        </mxCell>
        <mxCell id="LpYJtgIqMoZLmwXfNO1s-188" value="&lt;b&gt;M&lt;/b&gt;" style="ellipse;whiteSpace=wrap;html=1;rounded=0;" vertex="1" parent="WIyWlLk6GJQsqaUBKTNV-1">
          <mxGeometry x="753.75" y="1280.51" width="35" height="37.5" as="geometry" />
        </mxCell>
        <mxCell id="LpYJtgIqMoZLmwXfNO1s-189" value="" style="endArrow=classic;html=1;rounded=0;" edge="1" parent="WIyWlLk6GJQsqaUBKTNV-1">
          <mxGeometry width="50" height="50" relative="1" as="geometry">
            <mxPoint x="712.81" y="1301.2" as="sourcePoint" />
            <mxPoint x="748.75" y="1301.2" as="targetPoint" />
          </mxGeometry>
        </mxCell>
        <mxCell id="LpYJtgIqMoZLmwXfNO1s-190" value="&lt;b&gt;yes&lt;/b&gt;" style="text;html=1;align=center;verticalAlign=middle;resizable=0;points=[];autosize=1;strokeColor=none;fillColor=none;" vertex="1" parent="WIyWlLk6GJQsqaUBKTNV-1">
          <mxGeometry x="617.5" y="886.26" width="40" height="30" as="geometry" />
        </mxCell>
        <mxCell id="LpYJtgIqMoZLmwXfNO1s-191" value="&lt;b&gt;No&lt;/b&gt;" style="text;html=1;align=center;verticalAlign=middle;resizable=0;points=[];autosize=1;strokeColor=none;fillColor=none;" vertex="1" parent="WIyWlLk6GJQsqaUBKTNV-1">
          <mxGeometry x="699.5" y="804.37" width="40" height="30" as="geometry" />
        </mxCell>
        <mxCell id="LpYJtgIqMoZLmwXfNO1s-202" style="edgeStyle=orthogonalEdgeStyle;rounded=0;orthogonalLoop=1;jettySize=auto;html=1;" edge="1" parent="WIyWlLk6GJQsqaUBKTNV-1" source="LpYJtgIqMoZLmwXfNO1s-195" target="LpYJtgIqMoZLmwXfNO1s-201">
          <mxGeometry relative="1" as="geometry" />
        </mxCell>
        <mxCell id="LpYJtgIqMoZLmwXfNO1s-195" value="&lt;b&gt;x&lt;/b&gt;&lt;div&gt;&lt;b&gt;==&lt;br&gt;3&lt;/b&gt;&lt;/div&gt;" style="rhombus;whiteSpace=wrap;html=1;" vertex="1" parent="WIyWlLk6GJQsqaUBKTNV-1">
          <mxGeometry x="500" y="1318.01" width="80" height="80" as="geometry" />
        </mxCell>
        <mxCell id="LpYJtgIqMoZLmwXfNO1s-208" style="edgeStyle=orthogonalEdgeStyle;rounded=0;orthogonalLoop=1;jettySize=auto;html=1;entryX=0;entryY=0.5;entryDx=0;entryDy=0;" edge="1" parent="WIyWlLk6GJQsqaUBKTNV-1" source="LpYJtgIqMoZLmwXfNO1s-198" target="LpYJtgIqMoZLmwXfNO1s-207">
          <mxGeometry relative="1" as="geometry" />
        </mxCell>
        <mxCell id="LpYJtgIqMoZLmwXfNO1s-198" value="&lt;b&gt;x&lt;/b&gt;&lt;div&gt;&lt;b&gt;==&lt;br&gt;4&lt;/b&gt;&lt;/div&gt;" style="rhombus;whiteSpace=wrap;html=1;" vertex="1" parent="WIyWlLk6GJQsqaUBKTNV-1">
          <mxGeometry x="495" y="1430" width="90" height="75" as="geometry" />
        </mxCell>
        <mxCell id="LpYJtgIqMoZLmwXfNO1s-200" style="edgeStyle=orthogonalEdgeStyle;rounded=0;orthogonalLoop=1;jettySize=auto;html=1;entryX=0.808;entryY=1.01;entryDx=0;entryDy=0;entryPerimeter=0;" edge="1" parent="WIyWlLk6GJQsqaUBKTNV-1">
          <mxGeometry relative="1" as="geometry">
            <mxPoint x="369.9463157894738" y="764.9967269736842" as="sourcePoint" />
            <mxPoint x="454.45" y="659.71" as="targetPoint" />
            <Array as="points">
              <mxPoint x="456.45" y="764.71" />
              <mxPoint x="456.45" y="702.71" />
              <mxPoint x="454.45" y="702.71" />
            </Array>
          </mxGeometry>
        </mxCell>
        <mxCell id="LpYJtgIqMoZLmwXfNO1s-204" value="" style="edgeStyle=orthogonalEdgeStyle;rounded=0;orthogonalLoop=1;jettySize=auto;html=1;" edge="1" parent="WIyWlLk6GJQsqaUBKTNV-1" source="LpYJtgIqMoZLmwXfNO1s-201" target="LpYJtgIqMoZLmwXfNO1s-203">
          <mxGeometry relative="1" as="geometry" />
        </mxCell>
        <mxCell id="LpYJtgIqMoZLmwXfNO1s-201" value="&lt;b&gt;Read datas.txt&lt;/b&gt;" style="rounded=0;whiteSpace=wrap;html=1;" vertex="1" parent="WIyWlLk6GJQsqaUBKTNV-1">
          <mxGeometry x="117.5" y="1338.01" width="140" height="40" as="geometry" />
        </mxCell>
        <mxCell id="LpYJtgIqMoZLmwXfNO1s-203" value="&lt;b&gt;Display Land&lt;/b&gt;" style="shape=parallelogram;perimeter=parallelogramPerimeter;whiteSpace=wrap;html=1;fixedSize=1;rounded=0;" vertex="1" parent="WIyWlLk6GJQsqaUBKTNV-1">
          <mxGeometry x="118.75" y="1460" width="136.25" height="40" as="geometry" />
        </mxCell>
        <mxCell id="LpYJtgIqMoZLmwXfNO1s-205" value="&lt;b&gt;Yes&lt;/b&gt;" style="text;html=1;align=center;verticalAlign=middle;resizable=0;points=[];autosize=1;strokeColor=none;fillColor=none;" vertex="1" parent="WIyWlLk6GJQsqaUBKTNV-1">
          <mxGeometry x="571.25" y="406.25" width="40" height="30" as="geometry" />
        </mxCell>
        <mxCell id="LpYJtgIqMoZLmwXfNO1s-206" value="&lt;b&gt;No&lt;/b&gt;" style="text;html=1;align=center;verticalAlign=middle;resizable=0;points=[];autosize=1;strokeColor=none;fillColor=none;" vertex="1" parent="WIyWlLk6GJQsqaUBKTNV-1">
          <mxGeometry x="770" y="709.5" width="40" height="30" as="geometry" />
        </mxCell>
        <mxCell id="LpYJtgIqMoZLmwXfNO1s-207" value="&lt;span style=&quot;color: rgb(63, 78, 85); font-family: Inter, Helvetica, sans-serif; font-size: 14px; letter-spacing: -0.1px; text-align: start; background-color: rgb(255, 255, 255);&quot;&gt;&lt;b&gt;Terminate&amp;nbsp;&lt;/b&gt;&lt;/span&gt;&lt;b&gt;Program&lt;/b&gt;" style="rounded=0;whiteSpace=wrap;html=1;" vertex="1" parent="WIyWlLk6GJQsqaUBKTNV-1">
          <mxGeometry x="812.5" y="1447" width="140" height="40" as="geometry" />
        </mxCell>
        <mxCell id="LpYJtgIqMoZLmwXfNO1s-209" value="" style="endArrow=classic;html=1;rounded=0;" edge="1" parent="WIyWlLk6GJQsqaUBKTNV-1">
          <mxGeometry width="50" height="50" relative="1" as="geometry">
            <mxPoint x="247.5" y="1481.94" as="sourcePoint" />
            <mxPoint x="283.44" y="1481.94" as="targetPoint" />
          </mxGeometry>
        </mxCell>
        <mxCell id="LpYJtgIqMoZLmwXfNO1s-210" value="&lt;b&gt;M&lt;/b&gt;" style="ellipse;whiteSpace=wrap;html=1;rounded=0;" vertex="1" parent="WIyWlLk6GJQsqaUBKTNV-1">
          <mxGeometry x="288.44" y="1461.25" width="35" height="37.5" as="geometry" />
        </mxCell>
        <mxCell id="LpYJtgIqMoZLmwXfNO1s-211" value="" style="endArrow=classic;html=1;rounded=0;" edge="1" parent="WIyWlLk6GJQsqaUBKTNV-1">
          <mxGeometry width="50" height="50" relative="1" as="geometry">
            <mxPoint x="247.5" y="1481.94" as="sourcePoint" />
            <mxPoint x="283.44" y="1481.94" as="targetPoint" />
          </mxGeometry>
        </mxCell>
      </root>
    </mxGraphModel>
  </diagram>
</mxfile>
